<svg width="155" height="37" viewBox="0 0 155 37" fill="none" xmlns="http://www.w3.org/2000/svg">
<path d="M50.2233 5.39238C50.2233 6.47788 49.89 7.34725 49.2333 7.99563C48.4783 8.76425 47.495 9.151 46.29 9.151C45.1383 9.151 44.155 8.75775 43.3483 7.98263C42.54 7.19613 42.1367 6.23088 42.1367 5.0755C42.1367 3.92013 42.54 2.95488 43.3483 2.17488C44.155 1.39325 45.1383 1 46.29 1C46.8633 1 47.41 1.11538 47.9317 1.32988C48.4517 1.546 48.875 1.8385 49.1817 2.19925L48.485 2.885C47.95 2.26913 47.2217 1.96525 46.29 1.96525C45.45 1.96525 44.7217 2.25125 44.1033 2.82813C43.4917 3.40663 43.185 4.15575 43.185 5.0755C43.185 5.99525 43.4917 6.75088 44.1033 7.32938C44.7217 7.89975 45.45 8.19225 46.29 8.19225C47.1817 8.19225 47.9317 7.89975 48.5233 7.32288C48.9133 6.941 49.135 6.4145 49.1933 5.74175H46.29V4.8025H50.1633C50.21 5.00563 50.2233 5.20225 50.2233 5.39238V5.39238Z" fill="black" stroke="black" stroke-width="0.16" stroke-miterlimit="10"/>
<path d="M56.3683 2.13587H52.73V4.60587H56.01V5.54512H52.73V8.01512H56.3683V8.97224H51.7V1.17875H56.3683V2.13587Z" fill="black" stroke="black" stroke-width="0.16" stroke-miterlimit="10"/>
<path d="M60.705 8.97224H59.675V2.13587H57.4433V1.17875H62.9383V2.13587H60.705V8.97224V8.97224Z" fill="black" stroke="black" stroke-width="0.16" stroke-miterlimit="10"/>
<path d="M66.915 8.97224V1.17875H67.9433V8.97224H66.915Z" fill="black" stroke="black" stroke-width="0.16" stroke-miterlimit="10"/>
<path d="M72.5016 8.97224H71.48V2.13587H69.24V1.17875H74.7416V2.13587H72.5016V8.97224Z" fill="black" stroke="black" stroke-width="0.16" stroke-miterlimit="10"/>
<path d="M85.145 7.96963C84.3567 8.75775 83.38 9.151 82.215 9.151C81.0433 9.151 80.0666 8.75775 79.2783 7.96963C78.4916 7.18313 78.1 6.21788 78.1 5.0755C78.1 3.93313 78.4916 2.96788 79.2783 2.18138C80.0666 1.39325 81.0433 1 82.215 1C83.3733 1 84.35 1.39325 85.1383 2.18788C85.9317 2.98088 86.3233 3.93963 86.3233 5.0755C86.3233 6.21788 85.9317 7.18313 85.145 7.96963ZM80.04 7.31638C80.6333 7.89975 81.355 8.19225 82.215 8.19225C83.0683 8.19225 83.7966 7.89975 84.3833 7.31638C84.975 6.733 85.275 5.98388 85.275 5.0755C85.275 4.16713 84.975 3.418 84.3833 2.83463C83.7966 2.25125 83.0683 1.95875 82.215 1.95875C81.355 1.95875 80.6333 2.25125 80.04 2.83463C79.4483 3.418 79.1483 4.16713 79.1483 5.0755C79.1483 5.98388 79.4483 6.733 80.04 7.31638V7.31638Z" fill="black" stroke="black" stroke-width="0.16" stroke-miterlimit="10"/>
<path d="M87.7683 8.97224V1.17875H89.0183L92.905 7.23999H92.95L92.905 5.74174V1.17875H93.9333V8.97224H92.86L88.79 2.61199H88.745L88.79 4.11674V8.97224H87.7683V8.97224Z" fill="black" stroke="black" stroke-width="0.16" stroke-miterlimit="10"/>
<path d="M21.8758 24.9856L5.84524 33.9712L5.79507 33.9955C5.22643 34.3286 4.55745 34.5155 3.84665 34.5155C2.06548 34.5155 0.568629 33.3375 0.133789 31.7451C0.128214 31.7397 0.125427 31.737 0.125427 31.737L14.3748 17.0481L21.8758 24.9856Z" fill="#EA4335"/>
<path d="M30.79 17.828C30.79 19.2498 29.9705 20.4928 28.7579 21.1265L21.8758 24.9856L14.0486 17.3812L21.8507 10.6379L28.7663 14.5376L28.783 14.5457C29.9788 15.1794 30.79 16.4144 30.79 17.828Z" fill="#FBBC04"/>
<path d="M14.8598 17.4218L0.125435 31.737C0.0418115 31.4282 0 31.1114 0 30.7783V4.82084C0 4.48774 0.0418115 4.16277 0.125435 3.85404L14.8598 17.4218Z" fill="#4285F4"/>
<path d="M0.125435 3.85404C0.568637 2.25354 2.06549 1.0755 3.84666 1.0755C4.57418 1.0755 5.25153 1.27861 5.83689 1.61171L21.8507 10.6379L14.4751 17.7955L0.125435 3.85404Z" fill="#34A853"/>
<path d="M77.8467 20.3538C74.715 20.3538 72.1567 22.6775 72.1567 25.8836C72.1567 29.0638 74.715 31.4119 77.8467 31.4119C80.985 31.4119 83.5433 29.0638 83.5433 25.8836C83.5433 22.6775 80.985 20.3538 77.8467 20.3538ZM77.8467 29.2344C76.1283 29.2344 74.65 27.8515 74.65 25.8836C74.65 23.8898 76.1283 22.5313 77.8467 22.5313C79.565 22.5313 81.05 23.8898 81.05 25.8836C81.05 27.8515 79.565 29.2344 77.8467 29.2344V29.2344ZM65.4317 20.3538C62.2933 20.3538 59.7417 22.6775 59.7417 25.8836C59.7417 29.0638 62.2933 31.4119 65.4317 31.4119C68.5683 31.4119 71.1217 29.0638 71.1217 25.8836C71.1217 22.6775 68.5683 20.3538 65.4317 20.3538ZM65.4317 29.2344C63.7117 29.2344 62.2283 27.8515 62.2283 25.8836C62.2283 23.8898 63.7117 22.5313 65.4317 22.5313C67.15 22.5313 68.6283 23.8898 68.6283 25.8836C68.6283 27.8515 67.15 29.2344 65.4317 29.2344ZM50.6583 22.0486V24.3984H56.4133C56.245 25.7114 55.795 26.6766 55.105 27.3494C54.265 28.1619 52.9567 29.0638 50.6583 29.0638C47.1167 29.0638 44.3433 26.2769 44.3433 22.8238C44.3433 19.3706 47.1167 16.5838 50.6583 16.5838C52.5733 16.5838 53.9667 17.3134 54.995 18.2591L56.6933 16.6033C55.255 15.2643 53.3417 14.2356 50.6583 14.2356C45.8017 14.2356 41.72 18.0885 41.72 22.8238C41.72 27.559 45.8017 31.4119 50.6583 31.4119C53.2833 31.4119 55.255 30.5734 56.805 29.0004C58.3933 27.4518 58.8883 25.2743 58.8883 23.516C58.8883 22.97 58.8417 22.4679 58.7583 22.0486H50.6583ZM111.068 23.8703C110.6 22.6336 109.155 20.3538 106.212 20.3538C103.295 20.3538 100.867 22.5946 100.867 25.8836C100.867 28.9809 103.27 31.4119 106.492 31.4119C109.097 31.4119 110.6 29.8633 111.218 28.9614L109.285 27.7053C108.64 28.625 107.762 29.2344 106.492 29.2344C105.23 29.2344 104.325 28.6705 103.745 27.559L111.33 24.4991L111.068 23.8703V23.8703ZM103.335 25.7114C103.27 23.5794 105.033 22.4874 106.297 22.4874C107.287 22.4874 108.127 22.97 108.407 23.6606L103.335 25.7114V25.7114ZM97.17 31.0755H99.6633V14.8255H97.17V31.0755ZM93.0866 21.5855H93.0033C92.4433 20.9388 91.375 20.3538 90.0217 20.3538C87.1817 20.3538 84.585 22.7848 84.585 25.9015C84.585 29.0004 87.1817 31.4119 90.0217 31.4119C91.375 31.4119 92.4433 30.822 93.0033 30.1558H93.0866V30.9488C93.0866 33.0629 91.9283 34.1988 90.06 34.1988C88.5366 34.1988 87.5917 33.1263 87.2017 32.2244L85.0333 33.1068C85.6583 34.5725 87.3133 36.3763 90.06 36.3763C92.9833 36.3763 95.45 34.6993 95.45 30.6189V20.6901H93.0866V21.5855V21.5855ZM90.235 29.2344C88.5167 29.2344 87.0783 27.832 87.0783 25.9015C87.0783 23.9531 88.5167 22.5313 90.235 22.5313C91.9283 22.5313 93.2633 23.9531 93.2633 25.9015C93.2633 27.832 91.9283 29.2344 90.235 29.2344V29.2344ZM122.742 14.8255H116.778V31.0755H119.265V24.9184H122.742C125.503 24.9184 128.212 22.97 128.212 19.8711C128.212 16.7739 125.497 14.8255 122.742 14.8255V14.8255ZM122.807 22.658H119.265V17.0859H122.807C124.663 17.0859 125.723 18.589 125.723 19.8711C125.723 21.1289 124.663 22.658 122.807 22.658ZM138.178 20.3229C136.382 20.3229 134.513 21.0964 133.745 22.8108L135.952 23.7126C136.427 22.8108 137.3 22.5183 138.223 22.5183C139.513 22.5183 140.822 23.2739 140.842 24.608V24.7786C140.392 24.5251 139.428 24.1498 138.243 24.1498C135.867 24.1498 133.445 25.4254 133.445 27.806C133.445 29.9835 135.392 31.3859 137.58 31.3859C139.253 31.3859 140.177 30.6498 140.757 29.7934H140.842V31.0495H143.243V24.816C143.243 21.9349 141.037 20.3229 138.178 20.3229ZM137.878 29.2279C137.065 29.2279 135.932 28.8346 135.932 27.8515C135.932 26.5938 137.345 26.1111 138.568 26.1111C139.663 26.1111 140.177 26.3468 140.842 26.6571C140.647 28.1619 139.318 29.2279 137.878 29.2279V29.2279ZM151.993 20.6788L149.135 27.7231H149.05L146.095 20.6788H143.413L147.853 30.523L145.32 36.0009H147.918L154.76 20.6788H151.993V20.6788ZM129.578 31.0755H132.072V14.8255H129.578V31.0755Z" fill="black"/>
</svg>
