<svg width="130" height="33" viewBox="0 0 130 33" fill="none" xmlns="http://www.w3.org/2000/svg">
<path d="M19.2365 15.4228C19.2505 14.3377 19.5387 13.2738 20.0743 12.3301C20.61 11.3864 21.3756 10.5934 22.3 10.0251C21.7128 9.1864 20.938 8.49617 20.0374 8.00926C19.1367 7.52234 18.1349 7.25214 17.1115 7.22012C14.9285 6.99098 12.8122 8.5264 11.6998 8.5264C10.5658 8.5264 8.85306 7.24287 7.00871 7.28082C5.81573 7.31936 4.65308 7.66627 3.63404 8.28775C2.615 8.90922 1.77432 9.78407 1.19391 10.827C-1.32029 15.18 0.555077 21.5774 2.96347 25.096C4.16844 26.8189 5.5767 28.7435 7.41939 28.6752C9.22257 28.6005 9.89602 27.5254 12.0726 27.5254C14.229 27.5254 14.8608 28.6752 16.7409 28.6318C18.6758 28.6004 19.8949 26.9012 21.0576 25.162C21.9233 23.9343 22.5896 22.5775 23.0315 21.1417C21.9074 20.6663 20.9481 19.8704 20.2732 18.8534C19.5984 17.8365 19.2378 16.6433 19.2365 15.4228V15.4228Z" fill="black"/>
<path d="M15.6854 4.90606C16.7404 3.63958 17.2601 2.01175 17.1343 0.36825C15.5225 0.537537 14.0336 1.30786 12.9644 2.52574C12.4416 3.12071 12.0412 3.81288 11.7861 4.56268C11.531 5.31248 11.4262 6.10521 11.4776 6.89555C12.2838 6.90385 13.0813 6.72911 13.8102 6.3845C14.539 6.03989 15.1802 5.53438 15.6854 4.90606Z" fill="black"/>
<path d="M42.0299 24.3134H35.8765L34.3988 28.6768H31.7924L37.6208 12.5334H40.3287L46.1572 28.6768H43.5064L42.0299 24.3134ZM36.5138 22.3H41.3914L38.9869 15.2185H38.9196L36.5138 22.3Z" fill="black"/>
<path d="M58.7446 22.7925C58.7446 26.4501 56.7869 28.8 53.8327 28.8C53.0844 28.8391 52.3401 28.6667 51.6852 28.3025C51.0303 27.9384 50.4911 27.3971 50.1295 26.7408H50.0736V32.5705H47.6577V16.907H49.9962V18.8646H50.0407C50.4189 18.2114 50.9671 17.673 51.6271 17.3066C52.287 16.9402 53.0339 16.7595 53.7883 16.7838C56.7755 16.7839 58.7446 19.1452 58.7446 22.7925ZM56.2614 22.7925C56.2614 20.4096 55.0299 18.843 53.151 18.843C51.3051 18.843 50.0635 20.4426 50.0635 22.7925C50.0635 25.164 51.3051 26.7522 53.151 26.7522C55.0299 26.7522 56.2614 25.197 56.2614 22.7925Z" fill="black"/>
<path d="M71.6988 22.7925C71.6988 26.4501 69.7412 28.8 66.787 28.8C66.0387 28.8391 65.2944 28.6667 64.6395 28.3025C63.9846 27.9384 63.4454 27.3971 63.0838 26.7408H63.0279V32.5705H60.612V16.907H62.9505V18.8646H62.9949C63.3731 18.2114 63.9214 17.673 64.5813 17.3066C65.2412 16.9402 65.9881 16.7595 66.7426 16.7839C69.7298 16.7839 71.6988 19.1452 71.6988 22.7925ZM69.2156 22.7925C69.2156 20.4096 67.9842 18.843 66.1053 18.843C64.2594 18.843 63.0178 20.4426 63.0178 22.7925C63.0178 25.164 64.2594 26.7522 66.1053 26.7522C67.9842 26.7522 69.2157 25.197 69.2157 22.7925H69.2156Z" fill="black"/>
<path d="M80.2606 24.1789C80.4396 25.7798 81.9948 26.8309 84.12 26.8309C86.1563 26.8309 87.6213 25.7797 87.6213 24.3362C87.6213 23.0832 86.7377 22.3329 84.6455 21.8188L82.5534 21.3147C79.589 20.5987 78.2128 19.2124 78.2128 16.9628C78.2128 14.1774 80.6402 12.2643 84.0869 12.2643C87.4981 12.2643 89.8366 14.1774 89.9154 16.9628H87.4766C87.3306 15.3518 85.9988 14.3793 84.0526 14.3793C82.1064 14.3793 80.7747 15.3632 80.7747 16.7952C80.7747 17.9365 81.6253 18.6081 83.7061 19.1222L85.4847 19.5589C88.7969 20.3422 90.173 21.6727 90.173 24.034C90.173 27.0542 87.7673 28.9459 83.9409 28.9459C80.3608 28.9459 77.9436 27.0987 77.7875 24.1788L80.2606 24.1789Z" fill="black"/>
<path d="M95.387 14.1216V16.907H97.6252V18.8202H95.387V25.3087C95.387 26.3168 95.8352 26.7865 96.8191 26.7865C97.0848 26.7819 97.3501 26.7632 97.6138 26.7306V28.6323C97.1714 28.715 96.7218 28.7524 96.2719 28.7441C93.889 28.7441 92.9597 27.849 92.9597 25.5664V18.8202H91.2484V16.907H92.9597V14.1216H95.387Z" fill="black"/>
<path d="M98.9215 22.7925C98.9215 19.0893 101.103 16.7623 104.504 16.7623C107.916 16.7623 110.087 19.0893 110.087 22.7925C110.087 26.5059 107.928 28.8228 104.504 28.8228C101.081 28.8228 98.9215 26.5059 98.9215 22.7925ZM107.625 22.7925C107.625 20.2522 106.461 18.7529 104.504 18.7529C102.546 18.7529 101.383 20.2636 101.383 22.7925C101.383 25.343 102.546 26.8309 104.504 26.8309C106.461 26.8309 107.625 25.343 107.625 22.7925H107.625Z" fill="black"/>
<path d="M112.079 16.907H114.383V18.9103H114.439C114.595 18.2846 114.961 17.7317 115.477 17.3444C115.992 16.9572 116.626 16.7592 117.27 16.7838C117.548 16.7829 117.826 16.8131 118.098 16.874V19.1337C117.746 19.0263 117.38 18.977 117.012 18.9877C116.661 18.9735 116.311 19.0354 115.987 19.1691C115.662 19.3029 115.37 19.5053 115.131 19.7626C114.891 20.0199 114.711 20.3258 114.601 20.6595C114.491 20.9932 114.455 21.3466 114.495 21.6956V28.6768H112.079L112.079 16.907Z" fill="black"/>
<path d="M129.237 25.2199C128.912 27.3565 126.831 28.8228 124.169 28.8228C120.745 28.8228 118.619 26.5288 118.619 22.8484C118.619 19.1566 120.756 16.7623 124.067 16.7623C127.323 16.7623 129.371 18.9992 129.371 22.5678V23.3956H121.058V23.5416C121.02 23.9747 121.074 24.4111 121.217 24.8217C121.361 25.2323 121.59 25.6077 121.889 25.923C122.188 26.2383 122.552 26.4863 122.954 26.6505C123.357 26.8147 123.79 26.8913 124.224 26.8753C124.795 26.9288 125.368 26.7966 125.858 26.4983C126.348 26.2001 126.728 25.7517 126.943 25.2199L129.237 25.2199ZM121.07 21.7071H126.954C126.976 21.3176 126.917 20.9279 126.781 20.5623C126.644 20.1967 126.434 19.8632 126.163 19.5827C125.892 19.3022 125.566 19.0808 125.205 18.9323C124.845 18.7838 124.457 18.7115 124.067 18.7199C123.674 18.7175 123.284 18.7931 122.92 18.9423C122.556 19.0915 122.225 19.3112 121.946 19.589C121.667 19.8667 121.446 20.1968 121.296 20.5604C121.146 20.9239 121.069 21.3137 121.07 21.7071V21.7071Z" fill="black"/>
<path d="M36.211 0.3822C36.7175 0.345853 37.2258 0.422371 37.6991 0.606234C38.1725 0.790097 38.5991 1.07672 38.9483 1.44543C39.2974 1.81415 39.5604 2.25575 39.7182 2.73841C39.876 3.22106 39.9248 3.73272 39.8609 4.23649C39.8609 6.71462 38.5216 8.13909 36.211 8.13909H33.4092V0.3822H36.211ZM34.6139 7.0421H36.0764C36.4384 7.06373 36.8006 7.00439 37.1367 6.86839C37.4728 6.73239 37.7743 6.52316 38.0194 6.25593C38.2644 5.98869 38.4468 5.67018 38.5532 5.32358C38.6596 4.97697 38.6874 4.611 38.6345 4.2523C38.6836 3.89502 38.6529 3.53131 38.5449 3.18725C38.4368 2.84319 38.254 2.52728 38.0095 2.26217C37.7651 1.99706 37.465 1.78931 37.1308 1.65381C36.7966 1.5183 36.4365 1.45839 36.0764 1.47837H34.6139V7.0421Z" fill="black"/>
<path d="M41.2218 5.20954C41.185 4.82485 41.2291 4.43671 41.351 4.07002C41.473 3.70333 41.6703 3.36618 41.9302 3.08021C42.1902 2.79423 42.507 2.56573 42.8604 2.40938C43.2138 2.25302 43.596 2.17225 43.9824 2.17225C44.3689 2.17225 44.7511 2.25302 45.1045 2.40938C45.4579 2.56573 45.7747 2.79423 46.0346 3.08021C46.2946 3.36618 46.4919 3.70333 46.6138 4.07002C46.7358 4.43671 46.7798 4.82485 46.743 5.20954C46.7805 5.59463 46.7371 5.98331 46.6154 6.35059C46.4937 6.71787 46.2966 7.05563 46.0366 7.34217C45.7766 7.62871 45.4595 7.85768 45.1057 8.01438C44.752 8.17107 44.3694 8.25202 43.9824 8.25202C43.5955 8.25202 43.2129 8.17107 42.8591 8.01438C42.5054 7.85768 42.1883 7.62871 41.9283 7.34217C41.6683 7.05563 41.4712 6.71787 41.3495 6.35059C41.2278 5.98331 41.1843 5.59463 41.2218 5.20954V5.20954ZM45.5547 5.20954C45.5547 3.94065 44.9847 3.19861 43.9843 3.19861C42.9802 3.19861 42.4152 3.94065 42.4152 5.20955C42.4152 6.48861 42.9802 7.22493 43.9843 7.22493C44.9848 7.22492 45.5548 6.48351 45.5548 5.20954H45.5547Z" fill="black"/>
<path d="M54.0822 8.13897H52.8838L51.6739 3.82764H51.5825L50.3777 8.13897H49.1907L47.5771 2.28517H48.7489L49.7975 6.75197H49.8839L51.0874 2.28517H52.1957L53.3992 6.75197H53.4906L54.5342 2.28517H55.6894L54.0822 8.13897Z" fill="black"/>
<path d="M57.0466 2.28517H58.1587V3.21509H58.245C58.3914 2.8811 58.6385 2.60111 58.9516 2.41417C59.2647 2.22722 59.6284 2.14262 59.9919 2.17217C60.2767 2.15075 60.5627 2.1937 60.8287 2.29783C61.0947 2.40195 61.3338 2.56459 61.5284 2.77368C61.723 2.98278 61.868 3.23298 61.9528 3.50574C62.0375 3.77851 62.0598 4.06685 62.018 4.34941V8.13891H60.8628V4.63952C60.8628 3.6988 60.454 3.23097 59.5996 3.23097C59.4062 3.22196 59.2132 3.25487 59.0337 3.32745C58.8542 3.40003 58.6925 3.51056 58.5598 3.65146C58.427 3.79236 58.3263 3.9603 58.2645 4.14377C58.2027 4.32724 58.1813 4.5219 58.2018 4.71441V8.13897H57.0466L57.0466 2.28517Z" fill="black"/>
<path d="M63.8589 0H65.0141V8.13896H63.8589V0Z" fill="black"/>
<path d="M66.6201 5.20954C66.5833 4.82482 66.6274 4.43666 66.7494 4.06996C66.8714 3.70325 67.0687 3.3661 67.3287 3.08011C67.5886 2.79413 67.9055 2.56563 68.2589 2.40927C68.6123 2.25291 68.9945 2.17214 69.381 2.17214C69.7675 2.17214 70.1497 2.25291 70.5031 2.40927C70.8565 2.56563 71.1734 2.79413 71.4333 3.08011C71.6933 3.3661 71.8906 3.70325 72.0126 4.06996C72.1347 4.43666 72.1787 4.82482 72.1419 5.20954C72.1794 5.59465 72.1358 5.98333 72.0141 6.35061C71.8924 6.71789 71.6952 7.05564 71.4352 7.34217C71.1752 7.6287 70.8581 7.85767 70.5043 8.01436C70.1506 8.17105 69.7679 8.25199 69.381 8.25199C68.9941 8.25199 68.6114 8.17105 68.2577 8.01436C67.9039 7.85767 67.5868 7.6287 67.3268 7.34217C67.0668 7.05564 66.8696 6.71789 66.7479 6.35061C66.6262 5.98333 66.5826 5.59465 66.6201 5.20954V5.20954ZM70.953 5.20954C70.953 3.94065 70.383 3.19861 69.3826 3.19861C68.3784 3.19861 67.8135 3.94065 67.8135 5.20955C67.8135 6.48861 68.3784 7.22493 69.3826 7.22493C70.383 7.22492 70.953 6.48351 70.953 5.20954H70.953Z" fill="black"/>
<path d="M73.3581 6.48352C73.3581 5.4298 74.1427 4.82234 75.5354 4.736L77.121 4.6446V4.13933C77.121 3.52106 76.7122 3.17195 75.9226 3.17195C75.2777 3.17195 74.8308 3.40872 74.7026 3.82258H73.5841C73.7022 2.81711 74.648 2.1722 75.9759 2.1722C77.4435 2.1722 78.2712 2.9028 78.2712 4.13933V8.13899H77.1591V7.31634H77.0677C76.8822 7.61142 76.6217 7.85199 76.3127 8.01346C76.0038 8.17494 75.6576 8.25153 75.3094 8.23543C75.0637 8.261 74.8153 8.23478 74.5803 8.15847C74.3453 8.08216 74.1289 7.95746 73.9451 7.7924C73.7612 7.62734 73.614 7.42559 73.5129 7.20015C73.4118 6.97471 73.3591 6.73058 73.3581 6.48352V6.48352ZM77.121 5.98331V5.49392L75.6915 5.58532C74.8854 5.63927 74.5198 5.91349 74.5198 6.42955C74.5198 6.9564 74.9768 7.263 75.6052 7.263C75.7894 7.28164 75.9754 7.26304 76.1522 7.20833C76.329 7.15361 76.493 7.06388 76.6344 6.94449C76.7758 6.8251 76.8918 6.67848 76.9754 6.51335C77.059 6.34823 77.1085 6.16797 77.121 5.98331V5.98331Z" fill="black"/>
<path d="M79.7896 5.20954C79.7896 3.35984 80.7405 2.18806 82.2195 2.18806C82.5853 2.1712 82.9484 2.25882 83.2663 2.44069C83.5841 2.62255 83.8437 2.89114 84.0146 3.21506H84.1009V0H85.2562V8.13896H84.1492V7.2141H84.0577C83.8737 7.53584 83.6051 7.80109 83.281 7.98111C82.957 8.16114 82.5899 8.24909 82.2195 8.23543C80.7303 8.2355 79.7896 7.06369 79.7896 5.20954ZM80.983 5.20954C80.983 6.45115 81.5682 7.19827 82.547 7.19827C83.5207 7.19827 84.1225 6.44037 84.1225 5.21462C84.1225 3.9946 83.5144 3.2259 82.547 3.2259C81.5745 3.2259 80.9829 3.97809 80.9829 5.20954H80.983Z" fill="black"/>
<path d="M90.036 5.20954C89.9992 4.82485 90.0432 4.43671 90.1652 4.07002C90.2872 3.70333 90.4844 3.36618 90.7444 3.08021C91.0043 2.79423 91.3211 2.56573 91.6745 2.40938C92.0279 2.25302 92.4101 2.17225 92.7966 2.17225C93.183 2.17225 93.5652 2.25302 93.9186 2.40938C94.272 2.56573 94.5888 2.79423 94.8488 3.08021C95.1087 3.36618 95.306 3.70333 95.428 4.07002C95.5499 4.43671 95.594 4.82485 95.5572 5.20954C95.5947 5.59463 95.5512 5.98331 95.4295 6.35059C95.3078 6.71787 95.1107 7.05563 94.8507 7.34217C94.5907 7.62871 94.2736 7.85768 93.9199 8.01438C93.5661 8.17107 93.1835 8.25202 92.7966 8.25202C92.4097 8.25202 92.027 8.17107 91.6733 8.01438C91.3195 7.85768 91.0024 7.62871 90.7424 7.34217C90.4825 7.05563 90.2853 6.71787 90.1636 6.35059C90.0419 5.98331 89.9985 5.59463 90.036 5.20954V5.20954ZM94.3689 5.20954C94.3689 3.94065 93.7988 3.19861 92.7985 3.19861C91.7943 3.19861 91.2294 3.94065 91.2294 5.20955C91.2294 6.48861 91.7943 7.22493 92.7985 7.22493C93.7989 7.22492 94.3689 6.48351 94.3689 5.20954Z" fill="black"/>
<path d="M97.1072 2.28517H98.2194V3.21509H98.3057C98.4521 2.8811 98.6991 2.60111 99.0123 2.41417C99.3254 2.22722 99.6891 2.14262 100.053 2.17217C100.337 2.15075 100.623 2.1937 100.889 2.29783C101.155 2.40195 101.394 2.56459 101.589 2.77368C101.784 2.98278 101.929 3.23298 102.013 3.50574C102.098 3.77851 102.121 4.06685 102.079 4.34941V8.13891H100.923V4.63952C100.923 3.6988 100.515 3.23097 99.6603 3.23097C99.4669 3.22196 99.2738 3.25487 99.0944 3.32745C98.9149 3.40003 98.7532 3.51056 98.6205 3.65146C98.4877 3.79236 98.387 3.9603 98.3252 4.14377C98.2634 4.32724 98.242 4.5219 98.2625 4.71441V8.13897H97.1072V2.28517Z" fill="black"/>
<path d="M108.607 0.827749V2.31183H109.875V3.28493H108.607V6.29499C108.607 6.90817 108.859 7.17667 109.434 7.17667C109.582 7.1762 109.729 7.1673 109.875 7.15001V8.11231C109.667 8.14943 109.457 8.16917 109.247 8.17134C107.962 8.17134 107.45 7.71939 107.45 6.59078V3.28488H106.521V2.31178H107.45V0.827749H108.607Z" fill="black"/>
<path d="M111.453 0H112.598V3.22588H112.689C112.843 2.88877 113.097 2.6072 113.416 2.41955C113.736 2.2319 114.105 2.14729 114.474 2.17725C114.758 2.16183 115.041 2.20914 115.304 2.31579C115.567 2.42245 115.803 2.58582 115.996 2.79426C116.188 3.0027 116.332 3.25107 116.418 3.52164C116.503 3.79222 116.528 4.07833 116.49 4.35958V8.13897H115.334V4.64457C115.334 3.70956 114.898 3.23603 114.082 3.23603C113.884 3.21974 113.684 3.24704 113.497 3.31601C113.31 3.38498 113.141 3.49395 113 3.63531C112.86 3.77667 112.752 3.947 112.684 4.13438C112.617 4.32175 112.591 4.52166 112.608 4.7201V8.13895H111.453L111.453 0Z" fill="black"/>
<path d="M123.227 6.55841C123.07 7.09341 122.73 7.55619 122.266 7.86578C121.802 8.17538 121.244 8.31208 120.69 8.25196C120.304 8.26214 119.921 8.18827 119.567 8.03548C119.213 7.8827 118.896 7.65465 118.639 7.36717C118.381 7.07969 118.19 6.73967 118.077 6.3707C117.964 6.00173 117.933 5.61266 117.986 5.23049C117.935 4.84713 117.966 4.45722 118.079 4.08715C118.191 3.71707 118.382 3.37548 118.638 3.08548C118.894 2.79549 119.209 2.56386 119.562 2.40629C119.915 2.24872 120.298 2.16888 120.685 2.17218C122.314 2.17218 123.296 3.28498 123.296 5.12318V5.5263H119.163V5.59104C119.145 5.80586 119.172 6.02209 119.242 6.22586C119.312 6.42964 119.425 6.61646 119.571 6.77435C119.718 6.93225 119.896 7.05772 120.094 7.14274C120.293 7.22776 120.506 7.27043 120.722 7.26804C120.998 7.30122 121.278 7.25145 121.526 7.12509C121.774 6.99872 121.979 6.80145 122.114 6.55837L123.227 6.55841ZM119.163 4.67189H122.12C122.134 4.47542 122.107 4.27808 122.041 4.09255C121.975 3.90702 121.871 3.73739 121.735 3.59458C121.599 3.45176 121.435 3.33891 121.253 3.26329C121.071 3.18766 120.876 3.15092 120.679 3.15544C120.479 3.15293 120.281 3.19044 120.095 3.26577C119.91 3.3411 119.742 3.45272 119.601 3.59404C119.46 3.73537 119.348 3.90355 119.273 4.08866C119.198 4.27378 119.16 4.47208 119.163 4.67189H119.163Z" fill="black"/>
</svg>
